# xmcd
#
# Track frame offsets: 
#        150
#        20645
#        38432
#        58270
#        67375
#        80982
#        93415
#        107355
#        124442
#        137297
#        150775
#        167807
#        189927
#        202940
#        232850
#        244607
#        258497
#        264970
#        277670
#        291420
#
# Disc length: 4047 seconds
#
# Revision: 0
# Processed by: cddbd v1.5.2PL0 Copyright (c) Steve Scherf et al.
# Submitted via: ExactAudioCopy v0.95a5
#
DISCID=0e0fcd14
DTITLE=Various Artist - The Very Best Of Blues Guitar [CD2]
DYEAR=1995
DGENRE=
TTITLE0=Clarence 'Gatemouth' Brown - Frosty (live)
TTITLE1=John Mayall - Telephone Blues
TTITLE2=Muddy Waters - Young Fashioned Ways
TTITLE3=Guitar Junior - Love Me, Love Me
TTITLE4=Magic Sam - All Your Love
TTITLE5=Earl Hooker - Blue Guitar
TTITLE6=Robert Nighthawk - Someday
TTITLE7=Hound Dog Taylor - Sittin' Here Alone
TTITLE8=Jimmy Reed - You Got Me Dizzy
TTITLE9=Eddie Taylor - Big Town Playboy
TTITLE10=Ike and Tina Turner - I Smell Trouble
TTITLE11=Luther Allison - Sweet Home Chicago (live)
TTITLE12=Lightnin' Hopkins - Baby Please Don't Go
TTITLE13=Little Milton - I Can't Quit You Baby
TTITLE14=Santa Barbera Machine Head - Rubber Monkey
TTITLE15=T.S. 'Groundhog' McPhee - Ain't Gonna Cry No More
TTITLE16=Eric Clapton and Jimmy Page - Choker
TTITLE17=T-Bone Walker - Hypin' Women Blues
TTITLE18=James Cotton - Cotton Crop Blues
TTITLE19=Howlin' Wolf - How Many More Years
EXTD=
EXTT0=
EXTT1=
EXTT2=
EXTT3=
EXTT4=
EXTT5=
EXTT6=
EXTT7=
EXTT8=
EXTT9=
EXTT10=
EXTT11=
EXTT12=
EXTT13=
EXTT14=
EXTT15=
EXTT16=
EXTT17=
EXTT18=
EXTT19=
PLAYORDER=
